<?xml version="1.0" encoding="utf-8"?>
<!-- Generator: Adobe Illustrator 22.1.0, SVG Export Plug-In . SVG Version: 6.00 Build 0)  -->
<svg version="1.1" id="Layer_1" xmlns="http://www.w3.org/2000/svg" xmlns:xlink="http://www.w3.org/1999/xlink" x="0px" y="0px"
	 width="50px" height="50px" viewBox="0 0 50 50" enable-background="new 0 0 50 50" xml:space="preserve">
<path fill="#DD5900" d="M47.465,21.535c-1.349-1.349-3.284-1.726-4.982-1.173l-3.8-3.8C38.887,16.082,39,15.554,39,15
	c0-2.209-1.791-4-4-4c-0.554,0-1.082,0.113-1.562,0.317l-3.8-3.8c0.553-1.698,0.176-3.633-1.173-4.982
	c-1.914-1.914-5.016-1.914-6.93,0c-1.349,1.349-1.726,3.284-1.173,4.982l-3.8,3.8C16.082,11.113,15.554,11,15,11
	c-2.209,0-4,1.791-4,4c0,0.554,0.113,1.082,0.317,1.562l-3.8,3.8c-1.698-0.553-3.633-0.176-4.982,1.173
	c-1.914,1.914-1.914,5.016,0,6.93c1.349,1.349,3.284,1.726,4.982,1.173l3.8,3.8C11.113,33.918,11,34.446,11,35c0,2.209,1.791,4,4,4
	c0.554,0,1.082-0.113,1.562-0.317l3.8,3.8c-0.553,1.698-0.176,3.633,1.173,4.982c1.914,1.914,5.016,1.914,6.93,0
	c1.349-1.349,1.726-3.284,1.173-4.982l3.8-3.8C33.918,38.887,34.446,39,35,39c2.209,0,4-1.791,4-4c0-0.554-0.113-1.082-0.317-1.562
	l3.8-3.8c1.698,0.553,3.633,0.176,4.982-1.173C49.378,26.551,49.378,23.449,47.465,21.535z M22.152,40.031l-3.469-3.469
	C18.887,36.082,19,35.554,19,35s-0.113-1.082-0.317-1.562L25,27.121l6.317,6.317C31.113,33.918,31,34.446,31,35
	s0.113,1.082,0.317,1.562l-3.469,3.469C26.147,38.809,23.853,38.809,22.152,40.031z M9.969,22.152l3.469-3.469
	C13.918,18.887,14.446,19,15,19s1.082-0.113,1.562-0.317L22.879,25l-6.317,6.317C16.082,31.113,15.554,31,15,31
	s-1.082,0.113-1.562,0.317l-3.469-3.469C11.191,26.147,11.191,23.853,9.969,22.152z M27.848,9.969l3.469,3.469
	C31.113,13.918,31,14.446,31,15s0.113,1.082,0.317,1.562L25,22.879l-6.317-6.317C18.887,16.082,19,15.554,19,15
	s-0.113-1.082-0.317-1.562l3.469-3.469C23.853,11.191,26.147,11.191,27.848,9.969z M35,31c-0.554,0-1.082,0.113-1.562,0.317
	L27.121,25l6.317-6.317C33.918,18.887,34.446,19,35,19s1.082-0.113,1.562-0.317l3.469,3.469c-1.223,1.701-1.223,3.995,0,5.696
	l-3.469,3.469C36.082,31.113,35.554,31,35,31z"/>
</svg>
