<?xml version="1.0" encoding="UTF-8" standalone="no"?>
<svg
   xmlns:bx="https://boxy-svg.com"
   xmlns:dc="http://purl.org/dc/elements/1.1/"
   xmlns:cc="http://creativecommons.org/ns#"
   xmlns:rdf="http://www.w3.org/1999/02/22-rdf-syntax-ns#"
   xmlns:svg="http://www.w3.org/2000/svg"
   xmlns="http://www.w3.org/2000/svg"
   xmlns:sodipodi="http://sodipodi.sourceforge.net/DTD/sodipodi-0.dtd"
   xmlns:inkscape="http://www.inkscape.org/namespaces/inkscape"
   inkscape:version="1.0 (4035a4fb49, 2020-05-01)"
   sodipodi:docname="logo-light-padded.svg"
   id="svg7"
   version="1.1"
   viewBox="-0.00000798677 -0.00000252097 176.918 67.657"
   height="48"
   width="176">
  <metadata
     id="metadata13">
    <rdf:RDF>
      <cc:Work
         rdf:about="">
        <dc:format>image/svg+xml</dc:format>
        <dc:type
           rdf:resource="http://purl.org/dc/dcmitype/StillImage" />
        <dc:title></dc:title>
      </cc:Work>
    </rdf:RDF>
  </metadata>
  <defs
     id="defs11" />
  <sodipodi:namedview
     inkscape:current-layer="svg7"
     inkscape:window-maximized="1"
     inkscape:window-y="-8"
     inkscape:window-x="-8"
     inkscape:cy="24"
     inkscape:cx="88"
     inkscape:zoom="5.9602273"
     showgrid="false"
     id="namedview9"
     inkscape:window-height="1386"
     inkscape:window-width="2560"
     inkscape:pageshadow="2"
     inkscape:pageopacity="0"
     guidetolerance="10"
     gridtolerance="10"
     objecttolerance="10"
     borderopacity="1"
     bordercolor="#666666"
     pagecolor="#ffffff" />
  <g
     transform="matrix(0.70311455,0,0,0.70311455,9.2230217,3.5270794)"
     style="fill:none;fill-rule:evenodd;stroke:none;stroke-width:1"
     id="Page-1">
    <path
       bx:origin="0.5 0.5"
       style="fill:#c8c8c8"
       id="Orleans"
       d="m 88.355,42.203 c 0,-2.75 0.411,-5.059 1.234,-6.926 0.614,-1.375 1.452,-2.609 2.515,-3.702 1.062,-1.093 2.225,-1.904 3.49,-2.432 1.683,-0.712 3.623,-1.068 5.821,-1.068 3.979,0 7.163,1.234 9.551,3.702 2.389,2.469 3.583,5.901 3.583,10.297 0,4.36 -1.185,7.771 -3.555,10.233 C 108.624,54.769 105.455,56 101.489,56 97.473,56 94.28,54.775 91.91,52.325 89.54,49.876 88.355,46.502 88.355,42.203 Z m 5.618,-0.184 c 0,3.058 0.706,5.376 2.119,6.954 1.412,1.578 3.205,2.367 5.378,2.367 2.174,0 3.958,-0.783 5.352,-2.349 1.393,-1.565 2.09,-3.914 2.09,-7.045 0,-3.095 -0.678,-5.404 -2.035,-6.927 -1.357,-1.522 -3.159,-2.284 -5.407,-2.284 -2.247,0 -4.058,0.771 -5.434,2.312 -1.375,1.541 -2.063,3.865 -2.063,6.972 z m 29.749,13.521 h -5.176 V 35.977 h 4.808 v 2.782 c 0.823,-1.314 1.563,-2.18 2.22,-2.598 0.657,-0.417 1.403,-0.626 2.238,-0.626 1.179,0 2.315,0.326 3.407,0.976 l -1.602,4.514 c -0.872,-0.565 -1.683,-0.848 -2.432,-0.848 -0.724,0 -1.338,0.2 -1.842,0.599 -0.503,0.399 -0.899,1.12 -1.188,2.164 -0.288,1.044 -0.433,3.23 -0.433,6.558 z m 9.726,0 V 28.535 h 5.177 V 55.54 Z m 21.81,-6.226 5.158,0.865 c -0.663,1.892 -1.71,3.332 -3.141,4.32 -1.43,0.989 -3.22,1.483 -5.369,1.483 -3.402,0 -5.919,-1.111 -7.553,-3.334 -1.289,-1.781 -1.934,-4.028 -1.934,-6.742 0,-3.242 0.847,-5.781 2.542,-7.617 1.695,-1.836 3.838,-2.754 6.429,-2.754 2.91,0 5.207,0.961 6.889,2.883 1.683,1.922 2.487,4.866 2.413,8.833 h -12.968 c 0.037,1.535 0.455,2.729 1.253,3.582 0.798,0.854 1.793,1.281 2.984,1.281 0.81,0 1.492,-0.221 2.045,-0.663 0.552,-0.443 0.97,-1.155 1.252,-2.137 z m 0.295,-5.232 c -0.037,-1.498 -0.424,-2.637 -1.161,-3.417 -0.736,-0.78 -1.633,-1.169 -2.689,-1.169 -1.13,0 -2.063,0.411 -2.8,1.234 -0.737,0.823 -1.099,1.94 -1.087,3.352 z m 13.226,-2.136 -4.697,-0.848 c 0.528,-1.891 1.436,-3.291 2.726,-4.2 1.289,-0.908 3.205,-1.363 5.747,-1.363 2.309,0 4.028,0.273 5.158,0.82 1.13,0.546 1.925,1.24 2.385,2.081 0.461,0.842 0.691,2.386 0.691,4.633 l -0.055,6.042 c 0,1.719 0.083,2.987 0.248,3.804 0.166,0.817 0.476,1.692 0.931,2.625 h -5.121 c -0.135,-0.344 -0.301,-0.854 -0.498,-1.529 -0.086,-0.307 -0.147,-0.51 -0.184,-0.608 -0.884,0.86 -1.83,1.504 -2.837,1.934 -1.007,0.43 -2.081,0.645 -3.223,0.645 -2.014,0 -3.601,-0.547 -4.762,-1.639 -1.16,-1.093 -1.741,-2.475 -1.741,-4.145 0,-1.105 0.264,-2.091 0.793,-2.957 0.528,-0.865 1.267,-1.528 2.219,-1.989 0.952,-0.461 2.324,-0.863 4.117,-1.207 2.419,-0.454 4.096,-0.878 5.029,-1.271 v -0.515 c 0,-0.995 -0.246,-1.704 -0.737,-2.128 -0.491,-0.424 -1.418,-0.635 -2.781,-0.635 -0.921,0 -1.64,0.181 -2.156,0.543 -0.515,0.362 -0.933,0.998 -1.252,1.907 z m 6.926,4.199 c -0.663,0.221 -1.713,0.485 -3.15,0.792 -1.437,0.307 -2.376,0.608 -2.818,0.903 -0.676,0.479 -1.013,1.087 -1.013,1.824 0,0.724 0.27,1.351 0.81,1.879 0.54,0.528 1.228,0.792 2.063,0.792 0.934,0 1.824,-0.307 2.671,-0.921 0.626,-0.467 1.038,-1.038 1.234,-1.713 0.135,-0.443 0.203,-1.284 0.203,-2.524 z m 27.981,9.395 h -5.176 v -9.984 c 0,-2.112 -0.111,-3.478 -0.332,-4.099 -0.221,-0.62 -0.58,-1.102 -1.078,-1.446 -0.497,-0.343 -1.096,-0.515 -1.796,-0.515 -0.896,0 -1.7,0.245 -2.413,0.736 -0.712,0.492 -1.2,1.142 -1.464,1.953 -0.264,0.811 -0.396,2.309 -0.396,4.495 v 8.86 h -5.176 V 35.977 h 4.807 v 2.874 c 1.707,-2.211 3.856,-3.316 6.448,-3.316 1.142,0 2.186,0.206 3.131,0.617 0.946,0.412 1.661,0.937 2.146,1.575 0.485,0.639 0.823,1.363 1.013,2.174 0.191,0.81 0.286,1.971 0.286,3.481 z m 3.426,-5.582 5.195,-0.792 c 0.221,1.007 0.669,1.772 1.344,2.294 0.676,0.522 1.621,0.783 2.837,0.783 1.339,0 2.346,-0.246 3.021,-0.737 0.454,-0.344 0.681,-0.805 0.681,-1.382 0,-0.393 -0.122,-0.718 -0.368,-0.976 -0.258,-0.246 -0.835,-0.473 -1.731,-0.682 -4.176,-0.921 -6.822,-1.762 -7.94,-2.523 -1.547,-1.056 -2.321,-2.524 -2.321,-4.403 0,-1.694 0.67,-3.119 2.008,-4.273 1.339,-1.155 3.414,-1.732 6.226,-1.732 2.677,0 4.667,0.436 5.969,1.308 1.301,0.872 2.198,2.161 2.689,3.868 l -4.882,0.903 c -0.208,-0.761 -0.604,-1.345 -1.188,-1.75 -0.583,-0.405 -1.415,-0.608 -2.496,-0.608 -1.363,0 -2.339,0.19 -2.928,0.571 -0.393,0.27 -0.59,0.62 -0.59,1.05 0,0.369 0.172,0.682 0.516,0.94 0.467,0.343 2.078,0.829 4.835,1.455 2.757,0.626 4.682,1.394 5.775,2.302 1.081,0.921 1.621,2.205 1.621,3.85 0,1.793 -0.749,3.334 -2.247,4.624 -1.498,1.289 -3.715,1.934 -6.65,1.934 -2.665,0 -4.774,-0.54 -6.327,-1.621 -1.554,-1.081 -2.57,-2.548 -3.049,-4.403 z" />
    <path
       bx:origin="0.5 0.5"
       style="fill:#68217a"
       id="Combined-Shape"
       d="M 37.322,0 74.644,21.548 V 64.644 L 37.322,86.192 0,64.644 V 21.548 Z M 37.194,18.601 58.408,30.848 V 55.343 L 37.194,67.591 15.981,55.343 V 30.848 Z" />
    <path
       bx:origin="0.5 0.5"
       style="fill:#783988"
       d="m 37.201,0 v 18.631 l 21.079,12.256 0.102,24.482 16.117,9.297 V 21.551 Z"
       id="Path-1" />
    <path
       bx:origin="0.5 0.5"
       transform="rotate(180,18.648999,53.814999)"
       style="fill:#783988"
       d="m 0,21.482 v 18.632 l 21.079,12.255 0.102,24.483 16.117,9.296 V 43.034 Z"
       id="Path-1-Copy" />
  </g>
</svg>
