<?xml version="1.0" encoding="UTF-8" standalone="no"?>
<svg
   xmlns:dc="http://purl.org/dc/elements/1.1/"
   xmlns:cc="http://creativecommons.org/ns#"
   xmlns:rdf="http://www.w3.org/1999/02/22-rdf-syntax-ns#"
   xmlns:svg="http://www.w3.org/2000/svg"
   xmlns="http://www.w3.org/2000/svg"
   xmlns:sodipodi="http://sodipodi.sourceforge.net/DTD/sodipodi-0.dtd"
   xmlns:inkscape="http://www.inkscape.org/namespaces/inkscape"
   width="900"
   height="340"
   viewBox="0 0 900 340"
   version="1.1"
   id="svg3336"
   inkscape:version="0.91 r13725"
   sodipodi:docname="logo_full.svg"
   inkscape:export-filename="C:\tmp\orleans\logo.png"
   inkscape:export-xdpi="135.52942"
   inkscape:export-ydpi="135.52942">
  <metadata
     id="metadata3354">
    <rdf:RDF>
      <cc:Work
         rdf:about="">
        <dc:format>image/svg+xml</dc:format>
        <dc:type
           rdf:resource="http://purl.org/dc/dcmitype/StillImage" />
        <dc:title>Orleans</dc:title>
      </cc:Work>
    </rdf:RDF>
  </metadata>
  <sodipodi:namedview
     pagecolor="#ffffff"
     bordercolor="#666666"
     borderopacity="1"
     objecttolerance="10"
     gridtolerance="10"
     guidetolerance="10"
     inkscape:pageopacity="0"
     inkscape:pageshadow="2"
     inkscape:window-width="1920"
     inkscape:window-height="1147"
     id="namedview3352"
     showgrid="false"
     inkscape:zoom="0.95507812"
     inkscape:cx="48.968303"
     inkscape:cy="-14.474438"
     inkscape:window-x="3832"
     inkscape:window-y="-8"
     inkscape:window-maximized="1"
     inkscape:current-layer="Orleans-1"
     fit-margin-top="0"
     fit-margin-left="0"
     fit-margin-right="0"
     fit-margin-bottom="0" />
  <!-- Generator: Sketch 3.8.3 (29802) - http://www.bohemiancoding.com/sketch -->
  <title
     id="title3338">Orleans</title>
  <desc
     id="desc3340">Created with Sketch.</desc>
  <defs
     id="defs3342" />
  <g
     id="Page-1"
     style="fill:none;fill-rule:evenodd;stroke:none;stroke-width:1"
     transform="translate(-228,-337)">
    <g
       id="Orleans-1">
      <g
         transform="translate(247.84375,342.5)"
         id="g3346">
        <path
           d="m 337.25781,161.09375 c 0,-10.50005 1.5703,-19.31246 4.71094,-26.4375 2.34376,-5.25003 5.54295,-9.96092 9.59766,-14.13281 4.0547,-4.1719 8.49607,-7.26562 13.32421,-9.28125 6.42191,-2.71877 13.82809,-4.07813 22.21875,-4.07813 15.18758,0 27.3398,4.71089 36.45704,14.13282 9.11723,9.42192 13.67578,22.52335 13.67578,39.30468 0,16.64071 -4.5234,29.66011 -13.57032,39.0586 -9.04692,9.39848 -21.14054,14.09765 -36.28125,14.09765 -15.3282,0 -27.51558,-4.67573 -36.5625,-14.02734 -9.04692,-9.35161 -13.57031,-22.23039 -13.57031,-38.63672 l 0,0 z m 21.44531,-0.70313 c 0,11.67194 2.69529,20.51951 8.08594,26.54297 5.39065,6.02347 12.23434,9.03516 20.53125,9.03516 8.29692,0 15.10544,-2.98825 20.42578,-8.96484 5.32034,-5.9766 7.98047,-14.94135 7.98047,-26.89454 0,-11.81255 -2.58981,-20.62497 -7.76953,-26.4375 -5.17971,-5.81252 -12.05855,-8.71874 -20.63672,-8.71874 -8.57817,0 -15.49216,2.94137 -20.74219,8.82421 -5.25002,5.88285 -7.875,14.75385 -7.875,26.61328 l 0,0 z M 472.25781,212 452.5,212 l 0,-74.67188 18.35156,0 0,10.61719 c 3.14064,-5.01565 5.96483,-8.3203 8.47266,-9.91406 2.50782,-1.59376 5.35545,-2.39063 8.54297,-2.39063 4.50002,0 8.83591,1.24218 13.00781,3.72657 l -6.11719,17.22656 c -3.32814,-2.15626 -6.42186,-3.23438 -9.28125,-3.23438 -2.76564,0 -5.10936,0.76172 -7.03125,2.28516 -1.92188,1.52345 -3.43359,4.27732 -4.53515,8.26172 -1.10157,3.98439 -1.65235,12.32806 -1.65235,25.03125 l 0,23.0625 z m 37.125,0 0,-103.07812 19.75781,0 0,103.07812 -19.75781,0 z m 83.25,-23.76563 19.6875,3.30469 c -2.53126,7.21879 -6.52731,12.71483 -11.98828,16.48828 -5.46096,3.77346 -12.29293,5.66016 -20.49609,5.66016 -12.98444,0 -22.59372,-4.24215 -28.82813,-12.72656 -4.9219,-6.79691 -7.38281,-15.37495 -7.38281,-25.73438 0,-12.37506 3.23434,-22.06637 9.70312,-29.07422 6.46879,-7.00784 14.64839,-10.51172 24.53907,-10.51172 11.10943,0 19.87497,3.66794 26.29687,11.00391 6.42191,7.33597 9.49219,18.57414 9.21094,33.71484 l -49.5,0 c 0.14063,5.85941 1.73436,10.41796 4.78125,13.67579 3.04689,3.25782 6.84373,4.88671 11.39062,4.88671 3.09377,0 5.69531,-0.84374 7.80469,-2.53125 2.10939,-1.6875 3.70312,-4.40623 4.78125,-8.15625 l 0,0 z m 1.125,-19.96875 c -0.14062,-5.71877 -1.61717,-10.06639 -4.42969,-13.04296 -2.81251,-2.97658 -6.23435,-4.46485 -10.26562,-4.46485 -4.31252,0 -7.87499,1.5703 -10.6875,4.71094 -2.81251,3.14064 -4.19531,7.40622 -4.14844,12.79687 l 29.53125,0 z m 50.48438,-8.15625 -17.92969,-3.23437 c 2.01563,-7.21879 5.48435,-12.56248 10.40625,-16.03125 4.9219,-3.46877 12.23433,-5.20313 21.9375,-5.20313 8.81254,0 15.37498,1.04296 19.6875,3.12891 4.31252,2.08595 7.34765,4.73436 9.10547,7.94531 1.75782,3.21096 2.63672,9.10543 2.63672,17.6836 l -0.21094,23.0625 c 0,6.56253 0.3164,11.40233 0.94922,14.51953 0.63281,3.1172 1.8164,6.45701 3.55078,10.01953 l -19.54688,0 c -0.51562,-1.31251 -1.14843,-3.2578 -1.89843,-5.83594 -0.32813,-1.17188 -0.5625,-1.94531 -0.70313,-2.32031 -3.37501,3.28127 -6.98435,5.74218 -10.82812,7.38281 -3.84377,1.64064 -7.94529,2.46094 -12.30469,2.46094 -7.68754,0 -13.74607,-2.08592 -18.17578,-6.25781 -4.42971,-4.1719 -6.64453,-9.44528 -6.64453,-15.82032 0,-4.21877 1.0078,-7.98045 3.02343,-11.28515 2.01564,-3.30471 4.83983,-5.83593 8.47266,-7.59375 3.63283,-1.75782 8.87106,-3.29296 15.71484,-4.60547 9.23443,-1.73438 15.6328,-3.35156 19.19532,-4.85156 l 0,-1.96875 c 0,-3.7969 -0.93749,-6.5039 -2.8125,-8.1211 -1.87501,-1.61719 -5.41404,-2.42578 -10.61719,-2.42578 -3.51564,0 -6.2578,0.6914 -8.22656,2.07422 -1.96876,1.38282 -3.5625,3.80858 -4.78125,7.27734 l 0,0 z m 26.4375,16.03125 c -2.53127,0.84376 -6.53904,1.85156 -12.02344,3.02344 -5.4844,1.17188 -9.0703,2.32031 -10.75781,3.44531 -2.57814,1.82814 -3.86719,4.14843 -3.86719,6.96094 0,2.76564 1.03124,5.15624 3.09375,7.17188 2.06251,2.01563 4.68748,3.02343 7.875,3.02343 3.56252,0 6.96092,-1.17186 10.19531,-3.51562 2.39064,-1.78126 3.96094,-3.96093 4.71094,-6.53906 0.51563,-1.68751 0.77344,-4.89842 0.77344,-9.63282 l 0,-3.9375 z M 777.48437,212 l -19.75781,0 0,-38.10938 c 0,-8.06254 -0.42187,-13.27733 -1.26562,-15.64453 -0.84376,-2.3672 -2.21484,-4.20702 -4.11328,-5.51953 -1.89845,-1.3125 -4.18358,-1.96875 -6.85547,-1.96875 -3.4219,0 -6.49218,0.93749 -9.21094,2.8125 -2.71876,1.87501 -4.58203,4.35936 -5.58984,7.45313 -1.00782,3.09376 -1.51172,8.81246 -1.51172,17.15625 l 0,33.82031 -19.75782,0 0,-74.67188 18.35157,0 0,10.96875 c 6.51565,-8.43754 14.7187,-12.65625 24.60937,-12.65625 4.3594,0 8.34373,0.78515 11.95313,2.35547 3.60939,1.57032 6.33983,3.57421 8.1914,6.01172 1.85158,2.43751 3.14062,5.20311 3.86719,8.29688 0.72657,3.09376 1.08984,7.52341 1.08984,13.28906 l 0,46.40625 z m 13.07813,-21.30469 19.82812,-3.02344 c 0.84376,3.84377 2.55468,6.76171 5.13282,8.75391 2.57814,1.9922 6.18747,2.98828 10.82812,2.98828 5.1094,0 8.95311,-0.93749 11.53125,-2.8125 1.73439,-1.3125 2.60156,-3.0703 2.60156,-5.27344 0,-1.5 -0.46874,-2.74218 -1.40625,-3.72656 -0.98437,-0.9375 -3.18748,-1.80468 -6.60937,-2.60156 -15.93758,-3.51564 -26.03904,-6.72655 -30.30469,-9.63281 -5.90628,-4.03127 -8.85937,-9.63278 -8.85937,-16.80469 0,-6.46878 2.55466,-11.90623 7.66406,-16.3125 5.1094,-4.40627 13.0312,-6.60938 23.76562,-6.60938 10.21881,0 17.81248,1.66405 22.78125,4.99219 4.96878,3.32814 8.39062,8.24997 10.26563,14.76563 l -18.63281,3.44531 c -0.79688,-2.90627 -2.30859,-5.13281 -4.53516,-6.67969 -2.22657,-1.54688 -5.40232,-2.32031 -9.52734,-2.32031 -5.20315,0 -8.92968,0.72655 -11.17969,2.17969 -1.50001,1.03125 -2.25,2.36718 -2.25,4.00781 0,1.40626 0.65624,2.60156 1.96875,3.58594 1.78126,1.3125 7.93354,3.16405 18.45703,5.55468 10.52349,2.39064 17.87107,5.3203 22.04297,8.78907 4.12502,3.51564 6.1875,8.41403 6.1875,14.69531 0,6.84378 -2.85935,12.72654 -8.57813,17.64844 -5.71877,4.9219 -14.17963,7.38281 -25.38281,7.38281 -10.17192,0 -18.22262,-2.06248 -24.15234,-6.1875 -5.92972,-4.12502 -9.80859,-9.72653 -11.63672,-16.80469 l 0,0 z"
           id="Orleans"
           inkscape:connector-curvature="0"
           style="fill:#4a4a4a" />
        <path
           d="m 142.46118,0 142.46118,82.25 0,164.5 L 142.46118,329 0,246.75 0,82.25 142.46118,0 Z m -0.48781,71 80.97338,46.75 0,93.5 L 141.97337,258 61,211.25 61,117.75 141.97337,71 Z"
           id="Combined-Shape"
           inkscape:connector-curvature="0"
           style="fill:#68217a" />
        <polygon
           id="Path-1"
           points="284.37,82.263687 142,0 142,71.11719 222.45988,117.89688 222.84904,211.34842 284.37,246.83443 "
           style="fill:#783988" />
        <polygon
           id="Path-1-Copy"
           transform="matrix(-1,0,0,-1,142.37,410.83443)"
           points="142.36999,164.26369 0,82 0,153.11719 80.45988,199.89688 80.849037,293.34842 142.36999,328.83443 "
           style="fill:#783988" />
      </g>
    </g>
  </g>
</svg>
