<?xml version="1.0" encoding="utf-8"?>
<svg width="176" height="48" viewBox="-0.00000798677 -0.00000252097 176.918 67.657" xmlns="http://www.w3.org/2000/svg" xmlns:bx="https://boxy-svg.com">
  <g id="Page-1" style="stroke: none; stroke-width: 1; fill: none; fill-rule: evenodd;" transform="matrix(0.7849569320678712, 0, 0, 0.7849569320678712, -0.0000010000001111620804, 0)">
    <path d="M 88.355 42.203 C 88.355 39.453 88.766 37.144 89.589 35.277 C 90.203 33.902 91.041 32.668 92.104 31.575 C 93.166 30.482 94.329 29.671 95.594 29.143 C 97.277 28.431 99.217 28.075 101.415 28.075 C 105.394 28.075 108.578 29.309 110.966 31.777 C 113.355 34.246 114.549 37.678 114.549 42.074 C 114.549 46.434 113.364 49.845 110.994 52.307 C 108.624 54.769 105.455 56 101.489 56 C 97.473 56 94.28 54.775 91.91 52.325 C 89.54 49.876 88.355 46.502 88.355 42.203 L 88.355 42.203 Z M 93.973 42.019 C 93.973 45.077 94.679 47.395 96.092 48.973 C 97.504 50.551 99.297 51.34 101.47 51.34 C 103.644 51.34 105.428 50.557 106.822 48.991 C 108.215 47.426 108.912 45.077 108.912 41.946 C 108.912 38.851 108.234 36.542 106.877 35.019 C 105.52 33.497 103.718 32.735 101.47 32.735 C 99.223 32.735 97.412 33.506 96.036 35.047 C 94.661 36.588 93.973 38.912 93.973 42.019 L 93.973 42.019 Z M 123.722 55.54 L 118.546 55.54 L 118.546 35.977 L 123.354 35.977 L 123.354 38.759 C 124.177 37.445 124.917 36.579 125.574 36.161 C 126.231 35.744 126.977 35.535 127.812 35.535 C 128.991 35.535 130.127 35.861 131.219 36.511 L 129.617 41.025 C 128.745 40.46 127.934 40.177 127.185 40.177 C 126.461 40.177 125.847 40.377 125.343 40.776 C 124.84 41.175 124.444 41.896 124.155 42.94 C 123.867 43.984 123.722 46.17 123.722 49.498 L 123.722 55.54 Z M 133.448 55.54 L 133.448 28.535 L 138.625 28.535 L 138.625 55.54 L 133.448 55.54 Z M 155.258 49.314 L 160.416 50.179 C 159.753 52.071 158.706 53.511 157.275 54.499 C 155.845 55.488 154.055 55.982 151.906 55.982 C 148.504 55.982 145.987 54.871 144.353 52.648 C 143.064 50.867 142.419 48.62 142.419 45.906 C 142.419 42.664 143.266 40.125 144.961 38.289 C 146.656 36.453 148.799 35.535 151.39 35.535 C 154.3 35.535 156.597 36.496 158.279 38.418 C 159.962 40.34 160.766 43.284 160.692 47.251 L 147.724 47.251 C 147.761 48.786 148.179 49.98 148.977 50.833 C 149.775 51.687 150.77 52.114 151.961 52.114 C 152.771 52.114 153.453 51.893 154.006 51.451 C 154.558 51.008 154.976 50.296 155.258 49.314 L 155.258 49.314 Z M 155.553 44.082 C 155.516 42.584 155.129 41.445 154.392 40.665 C 153.656 39.885 152.759 39.496 151.703 39.496 C 150.573 39.496 149.64 39.907 148.903 40.73 C 148.166 41.553 147.804 42.67 147.816 44.082 L 155.553 44.082 Z M 168.779 41.946 L 164.082 41.098 C 164.61 39.207 165.518 37.807 166.808 36.898 C 168.097 35.99 170.013 35.535 172.555 35.535 C 174.864 35.535 176.583 35.808 177.713 36.355 C 178.843 36.901 179.638 37.595 180.098 38.436 C 180.559 39.278 180.789 40.822 180.789 43.069 L 180.734 49.111 C 180.734 50.83 180.817 52.098 180.982 52.915 C 181.148 53.732 181.458 54.607 181.913 55.54 L 176.792 55.54 C 176.657 55.196 176.491 54.686 176.294 54.011 C 176.208 53.704 176.147 53.501 176.11 53.403 C 175.226 54.263 174.28 54.907 173.273 55.337 C 172.266 55.767 171.192 55.982 170.05 55.982 C 168.036 55.982 166.449 55.435 165.288 54.343 C 164.128 53.25 163.547 51.868 163.547 50.198 C 163.547 49.093 163.811 48.107 164.34 47.241 C 164.868 46.376 165.607 45.713 166.559 45.252 C 167.511 44.791 168.883 44.389 170.676 44.045 C 173.095 43.591 174.772 43.167 175.705 42.774 L 175.705 42.259 C 175.705 41.264 175.459 40.555 174.968 40.131 C 174.477 39.707 173.55 39.496 172.187 39.496 C 171.266 39.496 170.547 39.677 170.031 40.039 C 169.516 40.401 169.098 41.037 168.779 41.946 L 168.779 41.946 Z M 175.705 46.145 C 175.042 46.366 173.992 46.63 172.555 46.937 C 171.118 47.244 170.179 47.545 169.737 47.84 C 169.061 48.319 168.724 48.927 168.724 49.664 C 168.724 50.388 168.994 51.015 169.534 51.543 C 170.074 52.071 170.762 52.335 171.597 52.335 C 172.531 52.335 173.421 52.028 174.268 51.414 C 174.894 50.947 175.306 50.376 175.502 49.701 C 175.637 49.258 175.705 48.417 175.705 47.177 L 175.705 46.145 Z M 203.686 55.54 L 198.51 55.54 L 198.51 45.556 C 198.51 43.444 198.399 42.078 198.178 41.457 C 197.957 40.837 197.598 40.355 197.1 40.011 C 196.603 39.668 196.004 39.496 195.304 39.496 C 194.408 39.496 193.604 39.741 192.891 40.232 C 192.179 40.724 191.691 41.374 191.427 42.185 C 191.163 42.996 191.031 44.494 191.031 46.68 L 191.031 55.54 L 185.855 55.54 L 185.855 35.977 L 190.662 35.977 L 190.662 38.851 C 192.369 36.64 194.518 35.535 197.11 35.535 C 198.252 35.535 199.296 35.741 200.241 36.152 C 201.187 36.564 201.902 37.089 202.387 37.727 C 202.872 38.366 203.21 39.09 203.4 39.901 C 203.591 40.711 203.686 41.872 203.686 43.382 L 203.686 55.54 Z M 207.112 49.958 L 212.307 49.166 C 212.528 50.173 212.976 50.938 213.651 51.46 C 214.327 51.982 215.272 52.243 216.488 52.243 C 217.827 52.243 218.834 51.997 219.509 51.506 C 219.963 51.162 220.19 50.701 220.19 50.124 C 220.19 49.731 220.068 49.406 219.822 49.148 C 219.564 48.902 218.987 48.675 218.091 48.466 C 213.915 47.545 211.269 46.704 210.151 45.943 C 208.604 44.887 207.83 43.419 207.83 41.54 C 207.83 39.846 208.5 38.421 209.838 37.267 C 211.177 36.112 213.252 35.535 216.064 35.535 C 218.741 35.535 220.731 35.971 222.033 36.843 C 223.334 37.715 224.231 39.004 224.722 40.711 L 219.84 41.614 C 219.632 40.853 219.236 40.269 218.652 39.864 C 218.069 39.459 217.237 39.256 216.156 39.256 C 214.793 39.256 213.817 39.446 213.228 39.827 C 212.835 40.097 212.638 40.447 212.638 40.877 C 212.638 41.246 212.81 41.559 213.154 41.817 C 213.621 42.16 215.232 42.646 217.989 43.272 C 220.746 43.898 222.671 44.666 223.764 45.574 C 224.845 46.495 225.385 47.779 225.385 49.424 C 225.385 51.217 224.636 52.758 223.138 54.048 C 221.64 55.337 219.423 55.982 216.488 55.982 C 213.823 55.982 211.714 55.442 210.161 54.361 C 208.607 53.28 207.591 51.813 207.112 49.958 L 207.112 49.958 Z" id="Orleans" style="fill: rgb(200, 200, 200);" bx:origin="0.5 0.5"/>
    <path d="M 37.322 0 L 74.644 21.548 L 74.644 64.644 L 37.322 86.192 L 0 64.644 L 0 21.548 L 37.322 0 Z M 37.194 18.601 L 58.408 30.848 L 58.408 55.343 L 37.194 67.591 L 15.981 55.343 L 15.981 30.848 L 37.194 18.601 Z" id="Combined-Shape" style="fill: rgb(104, 33, 122);" bx:origin="0.5 0.5"/>
    <path id="Path-1" d="M 37.201 0 L 37.201 18.631 L 58.28 30.887 L 58.382 55.369 L 74.499 64.666 L 74.499 21.551 Z" style="fill: rgb(120, 57, 136);" bx:origin="0.5 0.5"/>
    <path id="Path-1-Copy" d="M 0 21.482 L 0 40.114 L 21.079 52.369 L 21.181 76.852 L 37.298 86.148 L 37.298 43.034 Z" style="fill: rgb(120, 57, 136);" transform="matrix(-1, 0, 0, -1, 37.297998, 107.629999)" bx:origin="0.5 0.5"/>
  </g>
</svg>
